<?xml version="1.0" encoding="UTF-8" standalone="no"?>
<svg xmlns="http://www.w3.org/2000/svg" xmlns:xlink="http://www.w3.org/1999/xlink" xmlns:serif="http://www.serif.com/" width="100%" height="100%" viewBox="0 0 1175 682" version="1.1" xml:space="preserve" style="fill-rule:evenodd;clip-rule:evenodd;stroke-linejoin:round;stroke-miterlimit:2;">
  <rect id="Page-3" serif:id="Page 3" x="0" y="0" width="1174.68" height="681.221" style="fill:none;"></rect>
  <g id="Page-31" serif:id="Page 3">
    <g id="Layer-1" serif:id="Layer 1">
      <g>
        <path d="M96.664,633.52c-3.515,1.857 -7.893,2.785 -13.132,2.785c-6.765,0 -12.182,-2.177 -16.25,-6.533c-4.068,-4.355 -6.102,-10.07 -6.102,-17.144c0,-7.606 2.288,-13.752 6.865,-18.439c4.576,-4.687 10.38,-7.03 17.41,-7.03c4.51,-0 8.246,0.652 11.209,1.956l-0,5.936c-3.405,-1.901 -7.163,-2.852 -11.275,-2.852c-5.461,0 -9.888,1.824 -13.282,5.472c-3.393,3.648 -5.09,8.523 -5.09,14.625c-0,5.792 1.586,10.407 4.759,13.845c3.172,3.438 7.334,5.157 12.485,5.157c4.776,-0 8.91,-1.061 12.403,-3.184l-0,5.406Z" style="fill:#919295;fill-rule:nonzero;"></path>
        <path d="M125.031,607.056c-0.95,-0.729 -2.321,-1.094 -4.112,-1.094c-2.321,-0 -4.261,1.094 -5.82,3.283c-1.558,2.189 -2.338,5.173 -2.338,8.954l0,17.311l-5.438,-0l-0,-33.959l5.438,0l0,6.998l0.133,-0c0.774,-2.388 1.956,-4.251 3.548,-5.588c1.592,-1.338 3.372,-2.007 5.339,-2.007c1.415,0 2.499,0.155 3.25,0.465l0,5.637Z" style="fill:#919295;fill-rule:nonzero;"></path>
        <path d="M159.932,619.89l-23.977,0c0.089,3.781 1.106,6.699 3.051,8.755c1.946,2.056 4.621,3.084 8.025,3.084c3.825,0 7.34,-1.26 10.546,-3.78l0,5.107c-2.985,2.166 -6.931,3.249 -11.839,3.249c-4.797,0 -8.567,-1.542 -11.308,-4.626c-2.742,-3.084 -4.112,-7.423 -4.112,-13.016c-0,-5.284 1.497,-9.589 4.493,-12.917c2.996,-3.327 6.715,-4.991 11.159,-4.991c4.444,0 7.882,1.437 10.314,4.311c2.432,2.875 3.648,6.865 3.648,11.972l-0,2.852Zm-5.572,-4.61c-0.022,-3.139 -0.779,-5.582 -2.271,-7.328c-1.493,-1.747 -3.565,-2.62 -6.218,-2.62c-2.565,-0 -4.742,0.917 -6.533,2.752c-1.791,1.835 -2.896,4.234 -3.316,7.196l18.338,0Z" style="fill:#919295;fill-rule:nonzero;"></path>
        <path d="M194.169,635.51l-5.439,-0l0,-5.306l-0.133,-0c-2.365,4.068 -5.847,6.101 -10.446,6.101c-3.382,0 -6.03,-0.895 -7.942,-2.686c-1.913,-1.79 -2.869,-4.167 -2.869,-7.13c0,-6.345 3.737,-10.037 11.209,-11.076l10.181,-1.426c0,-5.77 -2.332,-8.655 -6.997,-8.655c-4.09,-0 -7.782,1.393 -11.076,4.178l-0,-5.571c3.338,-2.122 7.185,-3.184 11.54,-3.184c7.981,0 11.972,4.223 11.972,12.668l-0,22.087Zm-5.439,-17.179l-8.191,1.128c-2.52,0.354 -4.422,0.978 -5.704,1.874c-1.282,0.895 -1.923,2.481 -1.923,4.758c-0,1.659 0.591,3.013 1.774,4.063c1.183,1.05 2.758,1.575 4.725,1.575c2.698,0 4.925,-0.945 6.683,-2.835c1.757,-1.891 2.636,-4.284 2.636,-7.18l0,-3.383Z" style="fill:#919295;fill-rule:nonzero;"></path>
        <path d="M221.873,635.178c-1.282,0.707 -2.974,1.061 -5.074,1.061c-5.947,0 -8.921,-3.316 -8.921,-9.949l0,-20.096l-5.836,-0l-0,-4.643l5.836,0l0,-8.29l5.439,-1.758l-0,10.048l8.556,0l-0,4.643l-8.556,-0l-0,19.135c-0,2.277 0.387,3.902 1.161,4.875c0.773,0.972 2.056,1.459 3.846,1.459c1.371,-0 2.554,-0.376 3.549,-1.128l-0,4.643Z" style="fill:#919295;fill-rule:nonzero;"></path>
        <path d="M233.626,592.929c-0.973,0 -1.802,-0.332 -2.487,-0.995c-0.686,-0.663 -1.028,-1.503 -1.028,-2.52c-0,-1.017 0.342,-1.863 1.028,-2.537c0.685,-0.674 1.514,-1.012 2.487,-1.012c0.995,0 1.84,0.338 2.537,1.012c0.696,0.674 1.044,1.52 1.044,2.537c0,0.973 -0.348,1.802 -1.044,2.487c-0.697,0.685 -1.542,1.028 -2.537,1.028Zm2.653,42.581l-5.439,-0l0,-33.959l5.439,0l-0,33.959Z" style="fill:#919295;fill-rule:nonzero;"></path>
        <path d="M277.181,635.51l-5.438,-0l-0,-19.367c-0,-7.208 -2.631,-10.811 -7.893,-10.811c-2.719,-0 -4.969,1.022 -6.748,3.067c-1.78,2.045 -2.67,4.626 -2.67,7.744l0,19.367l-5.439,-0l0,-33.959l5.439,0l0,5.638l0.133,-0c2.564,-4.289 6.278,-6.434 11.142,-6.434c3.714,0 6.555,1.2 8.523,3.598c1.968,2.399 2.951,5.865 2.951,10.397l0,20.76Z" style="fill:#919295;fill-rule:nonzero;"></path>
        <path d="M318.117,632.79c0,12.469 -5.969,18.704 -17.907,18.704c-4.201,-0 -7.871,-0.796 -11.01,-2.388l-0,-5.438c3.824,2.122 7.472,3.183 10.943,3.183c8.357,0 12.536,-4.444 12.536,-13.331l-0,-3.714l-0.133,-0c-2.587,4.333 -6.478,6.499 -11.673,6.499c-4.223,0 -7.622,-1.508 -10.198,-4.526c-2.575,-3.018 -3.863,-7.069 -3.863,-12.154c-0,-5.77 1.387,-10.358 4.162,-13.763c2.774,-3.404 6.572,-5.107 11.391,-5.107c4.577,0 7.97,1.835 10.181,5.505l0.133,0l-0,-4.709l5.438,0l0,31.239Zm-5.438,-12.635l-0,-5.007c-0,-2.697 -0.912,-5.008 -2.736,-6.931c-1.824,-1.924 -4.096,-2.885 -6.815,-2.885c-3.361,-0 -5.991,1.221 -7.893,3.664c-1.901,2.443 -2.852,5.864 -2.852,10.264c0,3.781 0.912,6.804 2.736,9.07c1.824,2.266 4.239,3.399 7.246,3.399c3.051,0 5.533,-1.083 7.445,-3.25c1.913,-2.166 2.869,-4.941 2.869,-8.324Z" style="fill:#919295;fill-rule:nonzero;"></path>
        <path d="M402.658,635.51l-5.538,-0l-0,-31.903c-0,-2.52 0.154,-5.604 0.464,-9.252l-0.133,0c-0.53,2.145 -1.006,3.681 -1.426,4.61l-16.249,36.545l-2.72,-0l-16.216,-36.28c-0.464,-1.061 -0.94,-2.686 -1.426,-4.875l-0.133,0c0.177,1.901 0.266,5.008 0.266,9.319l-0,31.836l-5.373,-0l0,-47.555l7.362,-0l14.592,33.162c1.127,2.543 1.857,4.444 2.189,5.704l0.198,0c0.951,-2.609 1.714,-4.554 2.289,-5.837l14.89,-33.029l6.964,-0l-0,47.555Z" style="fill:#919295;fill-rule:nonzero;"></path>
        <path d="M443.428,619.89l-23.977,0c0.089,3.781 1.106,6.699 3.051,8.755c1.946,2.056 4.621,3.084 8.026,3.084c3.824,0 7.34,-1.26 10.545,-3.78l0,5.107c-2.984,2.166 -6.931,3.249 -11.839,3.249c-4.797,0 -8.567,-1.542 -11.308,-4.626c-2.742,-3.084 -4.112,-7.423 -4.112,-13.016c-0,-5.284 1.498,-9.589 4.493,-12.917c2.996,-3.327 6.716,-4.991 11.159,-4.991c4.444,0 7.882,1.437 10.314,4.311c2.432,2.875 3.648,6.865 3.648,11.972l-0,2.852Zm-5.571,-4.61c-0.023,-3.139 -0.78,-5.582 -2.272,-7.328c-1.492,-1.747 -3.565,-2.62 -6.218,-2.62c-2.565,-0 -4.742,0.917 -6.533,2.752c-1.791,1.835 -2.896,4.234 -3.316,7.196l18.339,0Z" style="fill:#919295;fill-rule:nonzero;"></path>
        <path d="M477.665,635.51l-5.439,-0l0,-5.306l-0.132,-0c-2.366,4.068 -5.848,6.101 -10.447,6.101c-3.382,0 -6.03,-0.895 -7.942,-2.686c-1.912,-1.79 -2.869,-4.167 -2.869,-7.13c0,-6.345 3.737,-10.037 11.209,-11.076l10.181,-1.426c0,-5.77 -2.332,-8.655 -6.997,-8.655c-4.09,-0 -7.782,1.393 -11.076,4.178l-0,-5.571c3.338,-2.122 7.185,-3.184 11.54,-3.184c7.981,0 11.972,4.223 11.972,12.668l-0,22.087Zm-5.439,-17.179l-8.191,1.128c-2.52,0.354 -4.422,0.978 -5.704,1.874c-1.282,0.895 -1.923,2.481 -1.923,4.758c-0,1.659 0.591,3.013 1.774,4.063c1.183,1.05 2.758,1.575 4.726,1.575c2.697,0 4.924,-0.945 6.682,-2.835c1.757,-1.891 2.636,-4.284 2.636,-7.18l0,-3.383Z" style="fill:#919295;fill-rule:nonzero;"></path>
        <path d="M517.805,635.51l-5.439,-0l0,-19.367c0,-7.208 -2.631,-10.811 -7.892,-10.811c-2.72,-0 -4.969,1.022 -6.749,3.067c-1.78,2.045 -2.67,4.626 -2.67,7.744l0,19.367l-5.438,-0l-0,-33.959l5.438,0l0,5.638l0.133,-0c2.565,-4.289 6.279,-6.434 11.143,-6.434c3.714,0 6.555,1.2 8.522,3.598c1.968,2.399 2.952,5.865 2.952,10.397l-0,20.76Z" style="fill:#919295;fill-rule:nonzero;"></path>
        <path d="M532.542,592.929c-0.972,0 -1.801,-0.332 -2.487,-0.995c-0.685,-0.663 -1.028,-1.503 -1.028,-2.52c0,-1.017 0.343,-1.863 1.028,-2.537c0.686,-0.674 1.515,-1.012 2.487,-1.012c0.995,0 1.841,0.338 2.537,1.012c0.697,0.674 1.045,1.52 1.045,2.537c-0,0.973 -0.348,1.802 -1.045,2.487c-0.696,0.685 -1.542,1.028 -2.537,1.028Zm2.653,42.581l-5.438,-0l-0,-33.959l5.438,0l0,33.959Z" style="fill:#919295;fill-rule:nonzero;"></path>
        <path d="M576.098,635.51l-5.438,-0l-0,-19.367c-0,-7.208 -2.631,-10.811 -7.893,-10.811c-2.719,-0 -4.969,1.022 -6.749,3.067c-1.779,2.045 -2.669,4.626 -2.669,7.744l-0,19.367l-5.439,-0l0,-33.959l5.439,0l-0,5.638l0.132,-0c2.565,-4.289 6.279,-6.434 11.143,-6.434c3.714,0 6.555,1.2 8.523,3.598c1.967,2.399 2.951,5.865 2.951,10.397l0,20.76Z" style="fill:#919295;fill-rule:nonzero;"></path>
        <path d="M617.034,632.79c0,12.469 -5.969,18.704 -17.908,18.704c-4.2,-0 -7.87,-0.796 -11.01,-2.388l0,-5.438c3.825,2.122 7.473,3.183 10.944,3.183c8.357,0 12.535,-4.444 12.535,-13.331l0,-3.714l-0.132,-0c-2.587,4.333 -6.478,6.499 -11.673,6.499c-4.223,0 -7.622,-1.508 -10.198,-4.526c-2.576,-3.018 -3.863,-7.069 -3.863,-12.154c-0,-5.77 1.387,-10.358 4.162,-13.763c2.774,-3.404 6.571,-5.107 11.391,-5.107c4.576,0 7.97,1.835 10.181,5.505l0.132,0l0,-4.709l5.439,0l0,31.239Zm-5.439,-12.635l0,-5.007c0,-2.697 -0.912,-5.008 -2.736,-6.931c-1.823,-1.924 -4.095,-2.885 -6.814,-2.885c-3.361,-0 -5.992,1.221 -7.893,3.664c-1.901,2.443 -2.852,5.864 -2.852,10.264c-0,3.781 0.912,6.804 2.736,9.07c1.824,2.266 4.239,3.399 7.246,3.399c3.051,0 5.532,-1.083 7.445,-3.25c1.912,-2.166 2.868,-4.941 2.868,-8.324Z" style="fill:#919295;fill-rule:nonzero;"></path>
        <path d="M646.529,590.011c-1.061,-0.597 -2.266,-0.896 -3.615,-0.896c-3.802,0 -5.704,2.399 -5.704,7.197l0,5.239l7.959,0l0,4.643l-7.959,-0l0,29.316l-5.405,-0l-0,-29.316l-5.804,-0l0,-4.643l5.804,0l-0,-5.505c-0,-3.559 1.028,-6.372 3.084,-8.44c2.056,-2.067 4.62,-3.1 7.694,-3.1c1.658,-0 2.973,0.199 3.946,0.597l-0,4.908Z" style="fill:#919295;fill-rule:nonzero;"></path>
        <path d="M680.169,635.51l-5.439,-0l0,-5.373l-0.132,0c-2.255,4.112 -5.748,6.168 -10.48,6.168c-8.091,0 -12.137,-4.819 -12.137,-14.458l-0,-20.296l5.405,0l0,19.433c0,7.164 2.742,10.745 8.225,10.745c2.653,0 4.836,-0.978 6.549,-2.935c1.714,-1.956 2.57,-4.515 2.57,-7.677l0,-19.566l5.439,0l0,33.959Z" style="fill:#919295;fill-rule:nonzero;"></path>
        <rect x="692.851" y="585.235" width="5.439" height="50.274" style="fill:#919295;fill-rule:nonzero;"></rect>
        <path d="M762.547,633.52c-3.516,1.857 -7.893,2.785 -13.133,2.785c-6.765,0 -12.181,-2.177 -16.249,-6.533c-4.068,-4.355 -6.102,-10.07 -6.102,-17.144c-0,-7.606 2.288,-13.752 6.864,-18.439c4.577,-4.687 10.38,-7.03 17.411,-7.03c4.51,-0 8.246,0.652 11.209,1.956l-0,5.936c-3.405,-1.901 -7.163,-2.852 -11.276,-2.852c-5.46,0 -9.888,1.824 -13.281,5.472c-3.394,3.648 -5.091,8.523 -5.091,14.625c0,5.792 1.587,10.407 4.759,13.845c3.173,3.438 7.335,5.157 12.486,5.157c4.775,-0 8.909,-1.061 12.403,-3.184l-0,5.406Z" style="fill:#919295;fill-rule:nonzero;"></path>
        <path d="M787.399,636.305c-5.019,0 -9.026,-1.586 -12.022,-4.758c-2.995,-3.173 -4.493,-7.379 -4.493,-12.619c-0,-5.704 1.558,-10.158 4.676,-13.364c3.117,-3.206 7.329,-4.809 12.635,-4.809c5.062,0 9.014,1.559 11.855,4.676c2.841,3.118 4.262,7.44 4.262,12.967c-0,5.416 -1.531,9.755 -4.593,13.016c-3.062,3.261 -7.169,4.891 -12.32,4.891Zm0.398,-30.973c-3.493,-0 -6.257,1.188 -8.291,3.565c-2.034,2.376 -3.051,5.654 -3.051,9.832c0,4.024 1.028,7.197 3.084,9.518c2.056,2.321 4.809,3.482 8.258,3.482c3.515,0 6.218,-1.139 8.108,-3.416c1.89,-2.277 2.835,-5.516 2.835,-9.716c0,-4.245 -0.945,-7.517 -2.835,-9.816c-1.89,-2.3 -4.593,-3.449 -8.108,-3.449Z" style="fill:#919295;fill-rule:nonzero;"></path>
        <path d="M842.893,635.51l-5.439,-0l0,-19.367c0,-7.208 -2.631,-10.811 -7.892,-10.811c-2.72,-0 -4.969,1.022 -6.749,3.067c-1.78,2.045 -2.67,4.626 -2.67,7.744l0,19.367l-5.438,-0l-0,-33.959l5.438,0l0,5.638l0.133,-0c2.565,-4.289 6.279,-6.434 11.143,-6.434c3.714,0 6.555,1.2 8.522,3.598c1.968,2.399 2.952,5.865 2.952,10.397l-0,20.76Z" style="fill:#919295;fill-rule:nonzero;"></path>
        <path d="M883.033,635.51l-5.439,-0l0,-19.367c0,-7.208 -2.631,-10.811 -7.892,-10.811c-2.72,-0 -4.969,1.022 -6.749,3.067c-1.78,2.045 -2.67,4.626 -2.67,7.744l0,19.367l-5.438,-0l-0,-33.959l5.438,0l0,5.638l0.133,-0c2.565,-4.289 6.279,-6.434 11.143,-6.434c3.714,0 6.555,1.2 8.522,3.598c1.968,2.399 2.952,5.865 2.952,10.397l-0,20.76Z" style="fill:#919295;fill-rule:nonzero;"></path>
        <path d="M922.277,619.89l-23.976,0c0.088,3.781 1.105,6.699 3.051,8.755c1.946,2.056 4.621,3.084 8.025,3.084c3.825,0 7.34,-1.26 10.546,-3.78l-0,5.107c-2.985,2.166 -6.931,3.249 -11.839,3.249c-4.798,0 -8.567,-1.542 -11.308,-4.626c-2.742,-3.084 -4.113,-7.423 -4.113,-13.016c0,-5.284 1.498,-9.589 4.494,-12.917c2.996,-3.327 6.715,-4.991 11.159,-4.991c4.444,0 7.882,1.437 10.314,4.311c2.432,2.875 3.647,6.865 3.647,11.972l0,2.852Zm-5.571,-4.61c-0.022,-3.139 -0.779,-5.582 -2.271,-7.328c-1.493,-1.747 -3.565,-2.62 -6.218,-2.62c-2.565,-0 -4.743,0.917 -6.533,2.752c-1.791,1.835 -2.897,4.234 -3.317,7.196l18.339,0Z" style="fill:#919295;fill-rule:nonzero;"></path>
        <path d="M955.354,633.951c-2.609,1.57 -5.704,2.354 -9.286,2.354c-4.841,0 -8.749,-1.575 -11.723,-4.725c-2.973,-3.151 -4.46,-7.235 -4.46,-12.254c0,-5.593 1.603,-10.087 4.809,-13.48c3.205,-3.394 7.483,-5.091 12.834,-5.091c2.984,0 5.615,0.553 7.892,1.658l0,5.572c-2.52,-1.769 -5.217,-2.653 -8.091,-2.653c-3.471,-0 -6.318,1.243 -8.54,3.731c-2.222,2.487 -3.333,5.753 -3.333,9.799c0,3.98 1.045,7.119 3.134,9.418c2.089,2.299 4.892,3.449 8.407,3.449c2.962,0 5.748,-0.984 8.357,-2.951l-0,5.173Z" style="fill:#919295;fill-rule:nonzero;"></path>
        <path d="M981.035,635.178c-1.282,0.707 -2.974,1.061 -5.074,1.061c-5.947,0 -8.921,-3.316 -8.921,-9.949l0,-20.096l-5.836,-0l-0,-4.643l5.836,0l0,-8.29l5.439,-1.758l0,10.048l8.556,0l0,4.643l-8.556,-0l0,19.135c0,2.277 0.387,3.902 1.161,4.875c0.774,0.972 2.056,1.459 3.847,1.459c1.37,-0 2.553,-0.376 3.548,-1.128l0,4.643Z" style="fill:#919295;fill-rule:nonzero;"></path>
        <path d="M992.788,592.929c-0.973,0 -1.802,-0.332 -2.487,-0.995c-0.686,-0.663 -1.028,-1.503 -1.028,-2.52c-0,-1.017 0.342,-1.863 1.028,-2.537c0.685,-0.674 1.514,-1.012 2.487,-1.012c0.995,0 1.84,0.338 2.537,1.012c0.696,0.674 1.045,1.52 1.045,2.537c-0,0.973 -0.349,1.802 -1.045,2.487c-0.697,0.685 -1.542,1.028 -2.537,1.028Zm2.653,42.581l-5.439,-0l0,-33.959l5.439,0l-0,33.959Z" style="fill:#919295;fill-rule:nonzero;"></path>
        <path d="M1022.35,636.305c-5.018,0 -9.026,-1.586 -12.021,-4.758c-2.996,-3.173 -4.494,-7.379 -4.494,-12.619c0,-5.704 1.559,-10.158 4.676,-13.364c3.117,-3.206 7.329,-4.809 12.635,-4.809c5.063,0 9.015,1.559 11.856,4.676c2.841,3.118 4.261,7.44 4.261,12.967c-0,5.416 -1.531,9.755 -4.593,13.016c-3.062,3.261 -7.169,4.891 -12.32,4.891Zm0.398,-30.973c-3.493,-0 -6.257,1.188 -8.291,3.565c-2.033,2.376 -3.05,5.654 -3.05,9.832c-0,4.024 1.028,7.197 3.084,9.518c2.056,2.321 4.808,3.482 8.257,3.482c3.515,0 6.218,-1.139 8.108,-3.416c1.891,-2.277 2.836,-5.516 2.836,-9.716c-0,-4.245 -0.945,-7.517 -2.836,-9.816c-1.89,-2.3 -4.593,-3.449 -8.108,-3.449Z" style="fill:#919295;fill-rule:nonzero;"></path>
        <path d="M1077.84,635.51l-5.438,-0l-0,-19.367c-0,-7.208 -2.631,-10.811 -7.893,-10.811c-2.719,-0 -4.969,1.022 -6.749,3.067c-1.779,2.045 -2.669,4.626 -2.669,7.744l-0,19.367l-5.439,-0l0,-33.959l5.439,0l-0,5.638l0.133,-0c2.564,-4.289 6.278,-6.434 11.142,-6.434c3.714,0 6.555,1.2 8.523,3.598c1.968,2.399 2.951,5.865 2.951,10.397l0,20.76Z" style="fill:#919295;fill-rule:nonzero;"></path>
        <path d="M1087.74,634.283l0,-5.837c2.963,2.189 6.224,3.283 9.783,3.283c4.776,0 7.163,-1.592 7.163,-4.775c0,-0.907 -0.204,-1.675 -0.613,-2.305c-0.409,-0.63 -0.962,-1.188 -1.658,-1.675c-0.697,-0.486 -1.515,-0.923 -2.454,-1.31c-0.94,-0.387 -1.952,-0.79 -3.035,-1.21c-1.503,-0.597 -2.824,-1.2 -3.963,-1.808c-1.138,-0.607 -2.089,-1.293 -2.852,-2.056c-0.762,-0.762 -1.337,-1.63 -1.724,-2.603c-0.387,-0.973 -0.58,-2.111 -0.58,-3.416c-0,-1.591 0.364,-3.001 1.094,-4.228c0.729,-1.227 1.702,-2.255 2.918,-3.084c1.216,-0.829 2.603,-1.454 4.162,-1.874c1.559,-0.42 3.167,-0.63 4.825,-0.63c2.941,0 5.571,0.509 7.893,1.526l-0,5.505c-2.498,-1.636 -5.372,-2.454 -8.622,-2.454c-1.017,-0 -1.935,0.116 -2.753,0.348c-0.818,0.232 -1.52,0.558 -2.106,0.978c-0.586,0.42 -1.039,0.923 -1.359,1.509c-0.321,0.586 -0.481,1.233 -0.481,1.94c-0,0.884 0.16,1.625 0.481,2.222c0.32,0.597 0.79,1.128 1.409,1.592c0.619,0.464 1.371,0.884 2.255,1.26c0.884,0.376 1.89,0.785 3.018,1.227c1.503,0.575 2.852,1.166 4.046,1.774c1.194,0.608 2.211,1.294 3.051,2.056c0.84,0.763 1.486,1.642 1.94,2.637c0.453,0.995 0.679,2.177 0.679,3.548c0,1.68 -0.37,3.139 -1.11,4.378c-0.741,1.238 -1.73,2.266 -2.968,3.084c-1.239,0.818 -2.665,1.426 -4.278,1.824c-1.614,0.398 -3.306,0.596 -5.074,0.596c-3.493,0 -6.522,-0.674 -9.087,-2.022Z" style="fill:#919295;fill-rule:nonzero;"></path>
      </g>
      <path d="M106.751,524.78c19.912,-0 40.575,-15.78 40.575,-42.642c-0,-27.054 -22.917,-41.521 -40.575,-41.521c-18.792,0 -40.583,15.404 -40.583,42.642c-0,23.862 19.35,41.521 40.583,41.521m-0.196,-95.996c30.438,-0 53.925,25.737 53.925,53.912c0,27.988 -23.112,53.917 -53.925,53.917c-30.054,-0 -53.533,-25.358 -53.533,-53.167c-0,-32.496 26.483,-54.662 53.533,-54.662" style="fill:#016225;fill-rule:nonzero;"></path>
      <path d="M406.063,429.239l13.15,0l-0,17.471l0.375,-0c3.946,-6.217 14.087,-15.833 31.558,-15.833c12.592,-0 23.113,3.204 32.504,12.629c7.7,7.541 12.775,19.416 12.775,36.383l0,56.746l-13.15,0l0,-56.746c0,-13.383 -4.133,-22.804 -9.77,-28.275c-7.138,-6.979 -16.53,-8.858 -22.359,-8.858c-5.816,-0 -15.216,1.879 -22.354,8.858c-5.629,5.471 -9.767,14.892 -9.579,28.275l-0,56.746l-13.15,0l-0,-107.396Z" style="fill:#016225;fill-rule:nonzero;"></path>
      <path d="M514.185,432.373l22.92,-0l0,9.204l0.375,-0c4.696,-6.763 9.392,-12.771 22.359,-12.771l2.062,-0l0,24.229c-22.725,0.942 -22.725,18.792 -22.725,24.983l0,58.617l-24.991,0l-0,-104.262Z" style="fill:#47a942;fill-rule:nonzero;"></path>
      <path d="M933.455,482.323c0,-18.975 -14.65,-33.066 -30.241,-33.066c-12.963,-0 -30.621,11.087 -30.621,32.879c-0,19.725 14.846,32.496 30.621,32.496c18.221,-0 30.241,-15.78 30.241,-32.309m-85.85,-0.187c0,-31.563 25.738,-55.796 55.609,-55.796c29.491,-0 55.233,23.483 55.233,55.412c0,34.196 -26.3,55.805 -55.233,55.805c-30.996,-0 -55.609,-25.555 -55.609,-55.421" style="fill:#47a942;fill-rule:nonzero;"></path>
      <path d="M972.99,452.075l-14.604,-0l-0,-22.167l14.604,-0l-0,-34.75l24.983,-0l0,34.75l15.034,-0l-0,22.167l-15.034,-0l0,82.095l-24.983,0l-0,-82.095Z" style="fill:#47a942;fill-rule:nonzero;"></path>
      <path d="M792.045,429.508c-12.712,-0 -24.212,5.542 -32.504,14.462c-8.291,-8.92 -19.8,-14.462 -32.508,-14.462c-25.196,-0 -45.692,21.754 -45.692,48.487l0,59.692l26.229,0l0,-59.692c0,-12.275 8.734,-22.254 19.463,-22.254c10.254,0 18.662,9.109 19.396,20.625c-0.021,0.546 -0.084,1.084 -0.084,1.629l0,59.692l26.234,0l-0,-0.146l0.15,0l-0,-59.546c-0,-0.545 -0.059,-1.083 -0.075,-1.629c0.729,-11.516 9.133,-20.625 19.391,-20.625c10.734,0 19.467,9.979 19.467,22.254l0,59.546l26.229,0l0,-59.546c0,-26.733 -20.5,-48.487 -45.696,-48.487" style="fill:#47a942;fill-rule:nonzero;"></path>
      <rect x="171.479" y="431.321" width="13.175" height="138.958" style="fill:#016225;"></rect>
      <path d="M225.098,428.783c-27.046,0 -53.529,22.092 -53.617,54.5l13.163,0l-0,-0.025c-0,-27.237 21.825,-42.641 40.641,-42.641c17.692,-0 40.646,14.466 40.646,41.52c0,26.863 -20.7,42.642 -40.646,42.642c-9.895,0 -19.366,-3.867 -26.679,-10.367l0,15.046c7.767,4.509 16.788,7.154 26.492,7.154c30.858,0 54.004,-25.929 54.004,-53.916c0,-28.175 -23.525,-53.913 -54.004,-53.913" style="fill:#016225;fill-rule:nonzero;"></path>
      <path d="M386.776,455.085c-7.325,-12.775 -23.296,-26.116 -45.838,-26.3c-29.871,0.559 -53.35,24.984 -53.35,54.1c0,30.438 24.796,53.725 53.542,53.725c23.667,0 43.392,-15.591 50.529,-36.066l-13.9,-0c-4.696,12.779 -18.033,23.862 -36.821,24.237c-20.096,0 -38.887,-17.1 -39.825,-37.2l0.009,0c-0.567,-5.446 -0.771,-13.654 1.97,-19.875l0.025,0.009c6.471,-18.613 23.763,-27.1 38.013,-27.1c16.342,-0 36.067,10.9 40.196,35.133l-58.967,-0l0,11.833l72.308,0c0.563,-9.954 -0.941,-21.412 -7.891,-32.496" style="fill:#016225;fill-rule:nonzero;"></path>
      <path d="M670.911,480.631c-0,-26.3 -20.854,-54.85 -53.917,-54.85c-32.125,-0 -54.854,27.046 -54.854,56.542c0,30.429 24.042,55.233 55.042,55.233c24.421,-0 44.333,-17.471 50.346,-36.263l-26.3,0c-4.696,8.642 -12.963,13.338 -24.046,13.338c-17.271,-0 -26.95,-13.696 -28.584,-20.713c-1.508,-4.604 -3,-12.187 -0.862,-20.8l-0.054,0c0.125,-0.504 0.287,-0.958 0.425,-1.437c0.045,-0.159 0.079,-0.304 0.133,-0.459c5.233,-17.754 20.05,-22.524 28.942,-22.524c12.395,-0 25.362,7.7 28.179,24.42l-43.854,0l-0,20.1l67.904,0c0.746,-3.383 1.5,-7.704 1.5,-12.587" style="fill:#47a942;fill-rule:nonzero;"></path>
      <path d="M1121.65,480.631c0,-26.3 -20.845,-54.85 -53.908,-54.85c-32.129,-0 -54.862,27.046 -54.862,56.542c-0,30.429 24.05,55.233 55.045,55.233c24.421,-0 44.338,-17.471 50.346,-36.263l-26.296,0c-4.7,8.642 -12.962,13.338 -24.05,13.338c-17.266,-0 -26.95,-13.696 -28.583,-20.713c-1.508,-4.604 -3,-12.187 -0.862,-20.8l-0.05,0c0.125,-0.504 0.287,-0.958 0.42,-1.437c0.05,-0.159 0.084,-0.304 0.13,-0.459c5.237,-17.754 20.058,-22.524 28.945,-22.524c12.4,-0 25.363,7.7 28.18,24.42l-45.45,0l-0,20.1l69.495,0c0.755,-3.383 1.5,-7.704 1.5,-12.587" style="fill:#47a942;fill-rule:nonzero;"></path>
      <path d="M587.333,337.8c-80.525,0 -146.05,-65.504 -146.05,-146.045l30.588,-0c-0,63.67 51.804,115.47 115.462,115.47c63.667,0 115.471,-51.8 115.471,-115.47c0,-63.663 -51.804,-115.467 -115.471,-115.467l0,-30.579c80.534,-0 146.059,65.521 146.059,146.046c-0,80.541 -65.525,146.045 -146.059,146.045" style="fill:#c1d82e;fill-rule:nonzero;"></path>
      <path d="M565.222,297.708c-28.291,-5.887 -52.608,-22.475 -68.445,-46.65c-15.838,-24.187 -21.309,-53.108 -15.4,-81.404c5.912,-28.308 22.483,-52.612 46.666,-68.45c24.196,-15.846 53.096,-21.317 81.409,-15.4c58.433,12.188 96.05,69.633 83.845,128.046l-29.929,-6.229c8.742,-41.921 -18.246,-83.134 -60.175,-91.888c-20.312,-4.237 -41.046,-0.321 -58.396,11.059c-17.354,11.354 -29.241,28.795 -33.483,49.112c-4.229,20.3 -0.317,41.033 11.058,58.392c11.35,17.358 28.788,29.254 49.109,33.479l-6.259,29.933Z" style="fill:#47a942;fill-rule:nonzero;"></path>
      <path d="M587.427,261.925c-1.183,0 -2.362,-0.025 -3.562,-0.075c-18.713,-0.933 -35.95,-9.1 -48.538,-22.987c-12.583,-13.9 -19.008,-31.858 -18.075,-50.588l30.533,1.517c-0.52,10.567 3.1,20.7 10.209,28.542c7.096,7.841 16.837,12.441 27.387,12.966c10.521,0.484 20.704,-3.095 28.534,-10.195c7.841,-7.088 12.445,-16.821 12.975,-27.384c1.079,-21.804 -15.784,-40.429 -37.592,-41.512l1.517,-30.542c38.658,1.921 68.537,34.913 66.625,73.567c-0.938,18.716 -9.1,35.954 -22.992,48.541c-13.013,11.78 -29.588,18.15 -47.021,18.15" style="fill:#016225;fill-rule:nonzero;"></path>
    </g>
  </g>
</svg>
